# xmcd
#
# Track frame offsets:
#	150
#	18218
#	35188
#	50203
#	67149
#	88573
#	106760
#
# Disc length: 1640 seconds
#
# Revision: 1
# Processed by: cddbd v1.5.2PL0 Copyright (c) Steve Scherf et al.
# Submitted via: audiograbber 1.83.01
#
DISCID=5c066607
DTITLE=Carrie Underwood - Play On (Deluxe Edition) [Disc 2]
DYEAR=2011
DGENRE=Country
TTITLE0=Don't Forget To Remember Me
TTITLE1=Jesus, Take The Wheel
TTITLE2=Before He Cheats
TTITLE3=So Small
TTITLE4=Just A Dream
TTITLE5=Last Name
TTITLE6=Home Sweet Home
EXTD=
EXTT0=
EXTT1=
EXTT2=
EXTT3=
EXTT4=
EXTT5=
EXTT6=
PLAYORDER=
